<svg xmlns="http://www.w3.org/2000/svg" viewBox="0 0 620 280">
  <rect width="620" height="280" rx="32" fill="#eff6ff"/>
  <rect x="210" y="24" width="170" height="240" rx="34" fill="#111827"/>
  <rect x="225" y="48" width="140" height="192" rx="14" fill="#fff"/>
  <path d="M272 37h46" stroke="#374151" stroke-width="5" stroke-linecap="round"/>
  <g transform="translate(240 76)">
    <rect width="34" height="34" rx="6" fill="#f6ad7b"/>
    <rect x="43" width="34" height="34" rx="6" fill="#60a5fa"/>
    <rect x="86" width="34" height="34" rx="6" fill="#a78bfa"/>
    <rect y="44" width="34" height="34" rx="6" fill="#93c5fd"/>
    <rect x="43" y="44" width="34" height="34" rx="6" fill="#f9a8d4"/>
    <rect x="86" y="44" width="34" height="34" rx="6" fill="#fcd34d"/>
    <rect y="88" width="34" height="34" rx="6" fill="#7dd3fc"/>
    <rect x="43" y="88" width="34" height="34" rx="6" fill="#c4b5fd"/>
    <rect x="86" y="88" width="34" height="34" rx="6" fill="#fdba74"/>
  </g>
  <rect x="398" y="95" width="92" height="92" rx="24" fill="#fff"/>
  <text x="444" y="132" fill="#2563eb" font-family="Arial" font-size="31" font-weight="800" text-anchor="middle">24</text>
  <text x="444" y="158" fill="#6b7280" font-family="Arial" font-size="14" font-weight="700" text-anchor="middle">Selected</text>
  <circle cx="135" cy="145" r="55" fill="#dbeafe"/>
  <path d="M114 151 132 133l18 19 12-12 20 24h-68z" fill="#2563eb"/>
</svg>
