<svg xmlns="http://www.w3.org/2000/svg" viewBox="0 0 280 280">
  <rect width="280" height="280" rx="26" fill="#fff"/>
  <g fill="#111827">
    <path d="M34 34h72v72H34zM174 34h72v72h-72zM34 174h72v72H34z"/>
    <path fill="#fff" d="M50 50h40v40H50zM190 50h40v40h-40zM50 190h40v40H50z"/>
    <path d="M62 62h16v16H62zM202 62h16v16h-16zM62 202h16v16H62zM126 38h14v28h-14zM146 38h14v14h-14zM126 82h34v14h-34zM118 118h20v20h-20zM150 118h14v44h-14zM178 122h32v14h-32zM226 122h18v18h-18zM118 154h18v18h-18zM178 154h18v18h-18zM206 154h40v14h-40zM122 194h30v14h-30zM166 186h18v42h-18zM198 186h14v14h-14zM224 184h22v22h-22zM198 218h48v14h-48zM122 226h28v20h-28zM134 134h12v12h-12zM212 82h18v18h-18zM82 126h22v18H82zM38 126h28v14H38z"/>
  </g>
</svg>
