<svg xmlns="http://www.w3.org/2000/svg" viewBox="0 0 1024 1024" role="img" aria-label="ViewPhoto.TV app icon phone to TV">
  <defs>
    <linearGradient id="bg" x1="102" x2="922" y1="90" y2="934" gradientUnits="userSpaceOnUse">
      <stop stop-color="#162554"/>
      <stop offset=".45" stop-color="#243f9e"/>
      <stop offset="1" stop-color="#7c3aed"/>
    </linearGradient>
    <linearGradient id="screen" x1="188" x2="792" y1="215" y2="728" gradientUnits="userSpaceOnUse">
      <stop stop-color="#304bff"/>
      <stop offset=".55" stop-color="#2f6bff"/>
      <stop offset="1" stop-color="#8b5cf6"/>
    </linearGradient>
    <linearGradient id="mountain" x1="230" x2="754" y1="390" y2="675" gradientUnits="userSpaceOnUse">
      <stop stop-color="#ffffff"/>
      <stop offset="1" stop-color="#c7d2fe"/>
    </linearGradient>
    <filter id="shadow" x="-20%" y="-20%" width="140%" height="140%">
      <feDropShadow dx="0" dy="28" stdDeviation="34" flood-color="#050816" flood-opacity=".38"/>
    </filter>
  </defs>
  <rect width="1024" height="1024" rx="228" fill="#0f172a"/>
  <rect x="88" y="88" width="848" height="848" rx="196" fill="url(#bg)"/>
  <rect x="168" y="196" width="688" height="492" rx="92" fill="#8b5cf6"/>
  <rect x="205" y="232" width="614" height="395" rx="58" fill="url(#screen)"/>
  <circle cx="368" cy="342" r="58" fill="#ff4b76"/>
  <path d="M238 600 410 418l110 112 113-146 162 216H238Z" fill="url(#mountain)"/>
  <path d="m410 418 110 112-75 70H238Z" fill="#f8fafc" opacity=".88"/>
  <path d="M604 420 795 600H484Z" fill="#dbeafe" opacity=".74"/>
  <path d="M402 732h220" stroke="#8b5cf6" stroke-width="42" stroke-linecap="round"/>
  <path d="M455 786h114" stroke="#8b5cf6" stroke-width="36" stroke-linecap="round"/>
  <g filter="url(#shadow)">
    <rect x="642" y="462" width="180" height="314" rx="52" fill="#101827" stroke="#ffffff" stroke-width="14"/>
    <rect x="681" y="543" width="100" height="100" rx="18" fill="#fff"/>
    <g fill="#111827">
      <path d="M698 560h24v24h-24zM740 560h24v24h-24zM698 604h24v24h-24zM740 604h10v10h-10zM758 604h12v24h-12zM728 590h18v12h-18zM728 620h20v10h-20z"/>
    </g>
    <path d="M706 502h52" stroke="#374151" stroke-width="12" stroke-linecap="round"/>
  </g>
  <path d="M166 474c-62 0-94 38-94 84s32 84 94 84" fill="none" stroke="#7c3aed" stroke-width="38" stroke-linecap="round"/>
  <path d="m110 558-38 38-38-38" fill="none" stroke="#7c3aed" stroke-width="34" stroke-linecap="round" stroke-linejoin="round"/>
</svg>
